<svg width="86" height="44" viewBox="0 0 86 44" fill="none" xmlns="http://www.w3.org/2000/svg">
<path d="M85.3596 4.34742C85.5515 4.14883 85.546 3.8323 85.3474 3.64042L82.1112 0.513618C81.9126 0.321742 81.5961 0.327185 81.4042 0.525776C81.2123 0.724366 81.2178 1.0409 81.4164 1.23278L84.293 4.01216L81.5136 6.8888C81.3217 7.08739 81.3272 7.40392 81.5258 7.5958C81.7244 7.78767 82.0409 7.78223 82.2328 7.58364L85.3596 4.34742ZM1.41343 43.2812C9.94783 30.7336 38.6656 5.29683 85.0086 4.49993L84.9914 3.50007C38.2882 4.30317 9.28294 29.9331 0.586568 42.7188L1.41343 43.2812Z" fill="#E1E0E0"/>
</svg>
