<?xml version="1.0" standalone="no"?>
<!DOCTYPE svg PUBLIC "-//W3C//DTD SVG 20010904//EN"
 "http://www.w3.org/TR/2001/REC-SVG-20010904/DTD/svg10.dtd">
<svg version="1.0" xmlns="http://www.w3.org/2000/svg"
 width="272.000000pt" height="272.000000pt" viewBox="0 0 272.000000 272.000000"
 preserveAspectRatio="xMidYMid meet">
<metadata>
Created by potrace 1.14, written by Peter Selinger 2001-2017
</metadata>
<g transform="translate(0.000000,272.000000) scale(0.100000,-0.100000)"
fill="#000000" stroke="none">
<path d="M1225 2661 c-351 -57 -637 -323 -718 -666 -19 -79 -29 -169 -21 -189
4 -12 154 -14 879 -14 l873 1 -4 66 c-26 368 -292 687 -651 782 -86 23 -274
33 -358 20z"/>
<path d="M0 1485 l0 -135 1360 0 1360 0 0 135 0 135 -1360 0 -1360 0 0 -135z"/>
<path d="M2 1041 l3 -135 292 0 c218 0 294 -3 297 -12 3 -7 -31 -41 -75 -76
-44 -34 -88 -70 -98 -78 -10 -8 -109 -87 -220 -175 l-201 -160 0 -173 0 -174
67 53 c38 30 70 56 73 59 3 3 25 21 50 40 53 41 78 61 94 75 10 9 387 308 411
326 6 4 26 -6 45 -24 19 -18 94 -82 165 -142 72 -60 135 -114 141 -120 6 -5
33 -29 60 -52 27 -23 59 -50 70 -60 180 -155 182 -157 197 -146 20 16 370 297
392 315 11 9 79 63 150 121 l130 105 40 -32 c40 -31 78 -62 99 -81 6 -5 27
-22 48 -37 20 -15 42 -34 50 -41 7 -7 57 -48 112 -92 54 -44 133 -108 175
-143 42 -34 93 -76 114 -93 l37 -31 0 174 0 175 -62 50 c-35 28 -73 60 -86 71
-13 11 -41 35 -64 54 -23 18 -46 38 -52 43 -6 6 -65 55 -131 110 -167 138
-183 154 -167 163 7 5 136 8 287 8 l276 -1 -3 135 -3 135 -1358 0 -1358 1 3
-135z m1928 -150 c0 -9 -28 -38 -62 -66 -35 -27 -74 -60 -88 -71 -14 -12 -95
-79 -180 -149 -85 -70 -173 -143 -195 -161 -22 -19 -42 -34 -45 -34 -3 0 -16
10 -30 23 -14 12 -56 49 -95 82 -63 54 -118 102 -149 130 -6 6 -43 37 -81 70
-178 152 -201 175 -186 184 6 4 259 7 561 7 491 0 550 -1 550 -15z"/>
</g>
</svg>
